<?xml version="1.0" encoding="UTF-8"?>
<svg xmlns="http://www.w3.org/2000/svg" xmlns:xlink="http://www.w3.org/1999/xlink" width="801pt" height="172.39pt" viewBox="0 0 801 172.39" version="1.1">
<g id="surface1">
<path style=" stroke:none;fill-rule:nonzero;fill:rgb(98.799133%,90.99884%,2.398682%);fill-opacity:1;" d="M 780.269531 0.00390625 L 0 0.00390625 L 0 172.390625 L 801 172.390625 L 801 0.00390625 L 780.269531 0.00390625 "/>
<path style=" stroke:none;fill-rule:nonzero;fill:rgb(0.799561%,1.199341%,1.199341%);fill-opacity:1;" d="M 296.261719 58.953125 L 280.601563 58.953125 L 280.601563 46.050781 L 296.261719 46.050781 L 296.261719 58.953125 "/>
<path style=" stroke:none;fill-rule:nonzero;fill:rgb(0.799561%,1.199341%,1.199341%);fill-opacity:1;" d="M 34.121094 106.273438 C 34.226563 113.105469 39.96875 115.867188 46.144531 115.867188 C 50.667969 115.867188 56.398438 114.101563 56.398438 108.585938 C 56.398438 103.839844 49.890625 102.1875 38.636719 99.761719 C 29.601563 97.773438 20.550781 94.578125 20.550781 84.542969 C 20.550781 69.984375 33.136719 66.234375 45.375 66.234375 C 57.832031 66.234375 69.300781 70.421875 70.515625 84.433594 L 55.628906 84.433594 C 55.1875 78.363281 50.554688 76.707031 44.929688 76.707031 C 41.402344 76.707031 36.214844 77.371094 36.214844 82.003906 C 36.214844 87.628906 45.042969 88.398438 53.972656 90.5 C 63.128906 92.59375 72.066406 95.90625 72.066406 106.492188 C 72.066406 121.488281 59.046875 126.339844 46.027344 126.339844 C 32.796875 126.339844 19.898438 121.382813 19.226563 106.273438 L 34.121094 106.273438 "/>
<path style=" stroke:none;fill-rule:nonzero;fill:rgb(0.799561%,1.199341%,1.199341%);fill-opacity:1;" d="M 77.234375 85.316406 C 78.109375 70.644531 91.234375 66.230469 104.03125 66.230469 C 115.398438 66.230469 129.074219 68.769531 129.074219 82.445313 L 129.074219 112.113281 C 129.074219 117.300781 129.621094 122.480469 131.054688 124.796875 L 115.175781 124.796875 C 114.617188 123.035156 114.183594 121.160156 114.070313 119.285156 C 109.113281 124.472656 101.824219 126.339844 94.878906 126.339844 C 84.074219 126.339844 75.472656 120.9375 75.472656 109.242188 C 75.472656 96.34375 85.171875 93.257813 94.878906 91.929688 C 104.476563 90.5 113.410156 90.828125 113.410156 84.429688 C 113.410156 77.710938 108.777344 76.707031 103.257813 76.707031 C 97.308594 76.707031 93.449219 79.140625 92.886719 85.316406 Z M 113.410156 96.894531 C 110.761719 99.207031 105.246094 99.324219 100.398438 100.207031 C 95.539063 101.199219 91.128906 102.851563 91.128906 108.585938 C 91.128906 114.433594 95.652344 115.867188 100.71875 115.867188 C 112.96875 115.867188 113.410156 106.160156 113.410156 102.742188 L 113.410156 96.894531 "/>
<path style=" stroke:none;fill-rule:nonzero;fill:rgb(0.799561%,1.199341%,1.199341%);fill-opacity:1;" d="M 135.6875 46.050781 L 151.351563 46.050781 L 151.351563 75.710938 L 151.683594 75.710938 C 155.652344 69.324219 162.492188 66.234375 168.339844 66.234375 C 184.996094 66.234375 189.183594 75.605469 189.183594 89.722656 L 189.183594 124.796875 L 173.515625 124.796875 L 173.515625 92.59375 C 173.515625 83.214844 170.769531 78.585938 163.484375 78.585938 C 154.988281 78.585938 151.351563 83.328125 151.351563 94.914063 L 151.351563 124.796875 L 135.6875 124.796875 L 135.6875 46.050781 "/>
<path style=" stroke:none;fill-rule:nonzero;fill:rgb(0.799561%,1.199341%,1.199341%);fill-opacity:1;" d="M 211.683594 58.953125 L 196.019531 58.953125 L 196.019531 46.050781 L 211.683594 46.050781 Z M 196.019531 67.777344 L 211.683594 67.777344 L 211.683594 124.796875 L 196.019531 124.796875 L 196.019531 67.777344 "/>
<path style=" stroke:none;fill-rule:nonzero;fill:rgb(0.799561%,1.199341%,1.199341%);fill-opacity:1;" d="M 218.769531 46.050781 L 234.433594 46.050781 L 234.433594 74.726563 L 234.65625 74.726563 C 238.503906 68.878906 245.570313 66.234375 252.628906 66.234375 C 263.992188 66.234375 276.230469 75.382813 276.230469 96.238281 C 276.230469 117.195313 263.992188 126.339844 252.628906 126.339844 C 244.25 126.339844 237.300781 123.804688 233.882813 117.515625 L 233.660156 117.515625 L 233.660156 124.796875 L 218.769531 124.796875 Z M 247.226563 78.035156 C 237.957031 78.035156 233.882813 86.746094 233.882813 96.34375 C 233.882813 105.832031 237.957031 114.539063 247.226563 114.539063 C 256.488281 114.539063 260.566406 105.832031 260.566406 96.34375 C 260.566406 86.746094 256.488281 78.035156 247.226563 78.035156 "/>
<path style=" stroke:none;fill-rule:nonzero;fill:rgb(0.799561%,1.199341%,1.199341%);fill-opacity:1;" d="M 563.820313 124.796875 L 548.164063 124.796875 L 548.164063 111.894531 L 563.820313 111.894531 L 563.820313 124.796875 "/>
<path style=" stroke:none;fill-rule:nonzero;fill:rgb(0.799561%,1.199341%,1.199341%);fill-opacity:1;" d="M 280.597656 67.777344 L 296.261719 67.777344 L 296.261719 124.796875 L 280.597656 124.796875 L 280.597656 67.777344 "/>
<path style=" stroke:none;fill-rule:nonzero;fill:rgb(0.799561%,1.199341%,1.199341%);fill-opacity:1;" d="M 303.347656 67.777344 L 318.230469 67.777344 L 318.230469 75.714844 L 318.566406 75.714844 C 322.539063 69.324219 329.371094 66.230469 335.996094 66.230469 C 352.648438 66.230469 356.835938 75.605469 356.835938 89.726563 L 356.835938 124.796875 L 341.179688 124.796875 L 341.179688 92.59375 C 341.179688 83.21875 338.417969 78.585938 331.136719 78.585938 C 322.648438 78.585938 319.007813 83.328125 319.007813 94.914063 L 319.007813 124.796875 L 303.347656 124.796875 L 303.347656 67.777344 "/>
<path style=" stroke:none;fill-rule:nonzero;fill:rgb(0.799561%,1.199341%,1.199341%);fill-opacity:1;" d="M 404.671875 117.519531 L 404.453125 117.519531 C 400.804688 123.695313 394.410156 126.339844 387.132813 126.339844 C 369.925781 126.339844 361.542969 111.5625 361.542969 95.792969 C 361.542969 80.460938 370.03125 66.230469 386.800781 66.230469 C 393.527344 66.230469 400.144531 69.097656 403.683594 74.726563 L 403.898438 74.726563 L 403.898438 46.054688 L 419.5625 46.054688 L 419.5625 124.796875 L 404.671875 124.796875 Z M 390.992188 78.03125 C 380.734375 78.03125 377.203125 86.855469 377.203125 96.238281 C 377.203125 105.167969 381.292969 114.539063 390.992188 114.539063 C 401.355469 114.539063 404.453125 105.503906 404.453125 96.121094 C 404.453125 86.855469 401.144531 78.03125 390.992188 78.03125 "/>
<path style=" stroke:none;fill-rule:nonzero;fill:rgb(0.799561%,1.199341%,1.199341%);fill-opacity:1;" d="M 439.484375 100.09375 C 439.925781 110.023438 444.773438 114.539063 453.488281 114.539063 C 459.78125 114.539063 464.851563 110.683594 465.851563 107.148438 L 479.632813 107.148438 C 475.214844 120.609375 465.851563 126.339844 452.941406 126.339844 C 434.96875 126.339844 423.832031 113.992188 423.832031 96.34375 C 423.832031 79.246094 435.628906 66.230469 452.941406 66.230469 C 472.355469 66.230469 481.730469 82.558594 480.628906 100.09375 Z M 464.96875 90.164063 C 463.527344 82.226563 460.113281 78.03125 452.5 78.03125 C 442.570313 78.03125 439.703125 85.753906 439.484375 90.164063 L 464.96875 90.164063 "/>
<path style=" stroke:none;fill-rule:nonzero;fill:rgb(0.799561%,1.199341%,1.199341%);fill-opacity:1;" d="M 484.375 67.777344 L 499.269531 67.777344 L 499.269531 75.714844 L 499.605469 75.714844 C 503.566406 69.324219 510.40625 66.230469 517.027344 66.230469 C 533.675781 66.230469 537.871094 75.605469 537.871094 89.726563 L 537.871094 124.796875 L 522.203125 124.796875 L 522.203125 92.59375 C 522.203125 83.21875 519.445313 78.585938 512.171875 78.585938 C 503.679688 78.585938 500.035156 83.328125 500.035156 94.914063 L 500.035156 124.796875 L 484.375 124.796875 L 484.375 67.777344 "/>
<path style=" stroke:none;fill-rule:nonzero;fill:rgb(0.799561%,1.199341%,1.199341%);fill-opacity:1;" d="M 611.882813 87.773438 C 610.882813 81.371094 606.8125 77.953125 600.296875 77.953125 C 590.261719 77.953125 586.949219 88.097656 586.949219 96.484375 C 586.949219 104.644531 590.148438 114.464844 599.964844 114.464844 C 607.25 114.464844 611.4375 109.828125 612.433594 102.878906 L 627.546875 102.878906 C 625.554688 117.988281 615.082031 126.261719 600.078125 126.261719 C 582.871094 126.261719 571.285156 114.128906 571.285156 97.039063 C 571.285156 79.28125 581.882813 66.15625 600.414063 66.15625 C 613.867188 66.15625 626.21875 73.210938 627.210938 87.773438 L 611.882813 87.773438 "/>
<path style=" stroke:none;fill-rule:nonzero;fill:rgb(0.799561%,1.199341%,1.199341%);fill-opacity:1;" d="M 660.738281 66.15625 C 678.714844 66.15625 690.289063 78.0625 690.289063 96.261719 C 690.289063 114.355469 678.714844 126.261719 660.738281 126.261719 C 642.863281 126.261719 631.285156 114.355469 631.285156 96.261719 C 631.285156 78.0625 642.863281 66.15625 660.738281 66.15625 M 660.738281 114.464844 C 671.4375 114.464844 674.632813 105.3125 674.632813 96.261719 C 674.632813 87.109375 671.4375 77.953125 660.738281 77.953125 C 650.144531 77.953125 646.945313 87.109375 646.945313 96.261719 C 646.945313 105.3125 650.144531 114.464844 660.738281 114.464844 "/>
<path style=" stroke:none;fill-rule:nonzero;fill:rgb(0.799561%,1.199341%,1.199341%);fill-opacity:1;" d="M 694.632813 67.695313 L 709.414063 67.695313 L 709.414063 75.417969 L 709.636719 75.417969 C 713.714844 69.574219 719.667969 66.15625 727.0625 66.15625 C 734.230469 66.15625 740.632813 68.796875 743.71875 75.632813 C 747.023438 70.675781 752.984375 66.15625 760.925781 66.15625 C 773.050781 66.15625 781.765625 71.777344 781.765625 86.554688 L 781.765625 124.714844 L 766.105469 124.714844 L 766.105469 92.402344 C 766.105469 84.792969 765.445313 78.511719 756.515625 78.511719 C 747.683594 78.511719 746.03125 85.785156 746.03125 92.957031 L 746.03125 124.714844 L 730.371094 124.714844 L 730.371094 92.742188 C 730.371094 86.117188 730.8125 78.511719 720.878906 78.511719 C 717.796875 78.511719 710.300781 80.492188 710.300781 91.636719 L 710.300781 124.714844 L 694.632813 124.714844 L 694.632813 67.695313 "/>
</g>
</svg>
